<svg width="1646" height="1169" viewBox="0 0 1646 1169" fill="none" xmlns="http://www.w3.org/2000/svg">
<path d="M1638.31 769.636C1620.01 655.568 1545.63 559.798 1325.33 470.444C1248.81 435.273 1163.5 410.086 1138.07 352.098C1129.04 318.353 1127.85 299.342 1133.56 278.904C1149.95 212.602 1229.09 191.927 1291.82 210.939C1332.22 224.484 1370.48 255.618 1393.54 305.283C1501.43 235.418 1501.19 235.891 1576.52 187.89C1548.95 145.114 1534.22 125.387 1516.16 107.091C1451.28 34.6103 1362.88 -2.69962 1221.48 0.15209C1197.01 3.24144 1172.29 6.56606 1147.81 9.65779C1077.24 27.481 1009.98 64.5533 970.532 114.221C852.186 248.489 885.932 483.515 1029.94 580.238C1171.82 686.701 1380.23 710.941 1406.84 810.513C1432.75 932.424 1317.26 971.87 1202.47 957.852C1117.87 940.266 1070.82 897.253 1019.96 819.068C926.333 873.251 926.333 873.251 830.088 928.622C852.902 978.527 876.901 1001.1 915.164 1044.35C1096.25 1228.05 1549.43 1219.02 1630.71 940.979C1634.03 931.471 1655.9 867.783 1638.31 769.636ZM701.996 14.8836H468.156C468.156 216.88 467.208 417.45 467.208 619.446C467.208 748.011 473.862 865.882 452.949 902.003C418.729 973.056 330.088 964.266 289.689 950.48C248.577 930.28 227.664 901.526 203.424 860.891C196.77 849.247 191.78 840.216 190.114 839.503C126.666 878.239 63.4506 917.21 0 955.948C31.6088 1020.82 78.1844 1077.15 137.833 1113.74C226.949 1167.21 346.721 1183.61 471.961 1154.85C553.472 1131.09 623.812 1081.9 660.646 1007.04C713.878 908.895 702.472 790.074 701.996 658.657C703.184 444.304 701.996 229.95 701.996 14.8836Z" fill="#EABD5F"/>
</svg>
